<?xml version="1.0" standalone="no"?>
<!DOCTYPE svg PUBLIC "-//W3C//DTD SVG 20010904//EN"
 "http://www.w3.org/TR/2001/REC-SVG-20010904/DTD/svg10.dtd">
<svg version="1.0" xmlns="http://www.w3.org/2000/svg"
 width="382.000000pt" height="44.000000pt" viewBox="0 0 382.000000 44.000000"
 preserveAspectRatio="xMidYMid meet">
<metadata>
Created by potrace 1.12, written by Peter Selinger 2001-2015
</metadata>
<g transform="translate(0.000000,44.000000) scale(0.100000,-0.100000)"
fill="#000000" stroke="none">
<path d="M0 220 l0 -220 1766 0 1766 0 19 22 c10 13 18 31 19 40 0 18 13 33
56 67 35 28 26 35 -25 20 -31 -9 -47 -9 -66 -1 -26 12 -33 36 -14 48 19 11
139 32 133 22 -3 -4 0 -8 5 -8 6 0 11 14 11 30 0 36 -30 43 -31 8 0 -13 -3
-17 -6 -10 -2 6 -8 10 -13 7 -14 -9 -22 33 -11 54 14 25 45 35 70 21 15 -8 26
-7 41 2 17 11 24 9 49 -17 20 -21 31 -43 34 -73 4 -42 4 -42 -17 -29 -11 8
-26 24 -32 36 -7 13 -17 28 -23 34 -16 16 -15 -17 1 -43 10 -16 9 -23 -12 -44
-22 -24 -22 -27 -7 -44 10 -10 17 -25 17 -33 0 -8 13 -30 30 -49 16 -19 29
-41 30 -47 0 -7 7 -13 15 -13 12 0 15 33 15 220 l0 220 -541 0 c-518 0 -539
-1 -530 -18 5 -10 12 -37 15 -61 4 -42 4 -42 -17 -28 -12 8 -23 24 -25 35 l-3
22 -32 -23 c-58 -40 -64 -71 -17 -80 18 -4 30 -13 30 -22 0 -8 5 -15 10 -15
14 0 13 -33 -2 -48 -18 -18 -27 -15 -47 19 -10 17 -22 26 -25 21 -4 -6 -2 -14
4 -17 7 -4 8 -25 4 -56 -5 -34 -3 -49 5 -49 7 0 11 -21 11 -55 0 -47 -3 -55
-18 -55 -25 0 -52 31 -52 58 0 17 -6 22 -25 22 -29 0 -38 25 -33 86 2 32 7 40
26 42 16 3 22 8 18 19 -3 8 -6 17 -6 19 0 14 -29 0 -33 -16 -6 -24 -30 -26
-48 -4 -18 21 -1 46 40 58 17 5 31 13 31 18 0 5 -4 7 -9 3 -15 -9 -23 32 -12
54 14 26 45 35 71 21 18 -10 25 -7 47 14 14 14 30 26 36 26 5 0 -2 -9 -17 -21
-25 -20 -35 -49 -17 -49 4 0 20 9 35 21 l26 21 11 -31 c15 -43 27 -39 20 6 -4
26 -14 41 -31 50 -36 19 -2124 19 -2160 0 -17 -9 -27 -24 -31 -50 -7 -45 5
-49 20 -6 l11 31 26 -21 c15 -12 31 -21 35 -21 18 0 8 29 -17 49 -15 12 -22
21 -17 21 6 0 22 -12 36 -26 22 -21 29 -24 47 -14 26 14 57 5 71 -21 11 -22 3
-63 -12 -54 -5 4 -9 2 -9 -3 0 -5 14 -13 31 -18 41 -12 58 -37 40 -58 -18 -22
-42 -20 -48 4 -6 24 -28 26 -37 4 -9 -22 -8 -22 17 -26 18 -2 23 -10 25 -42 5
-61 -4 -86 -33 -86 -20 0 -25 -5 -25 -23 0 -27 -28 -57 -53 -57 -14 0 -17 10
-17 55 0 34 4 55 11 55 8 0 10 15 5 49 -4 31 -3 52 4 56 6 3 8 11 4 17 -3 5
-15 -4 -25 -21 -20 -34 -29 -37 -47 -19 -15 15 -16 48 -2 48 6 0 10 7 10 15 0
9 12 18 30 22 47 9 41 40 -17 80 l-32 23 -3 -22 c-2 -11 -13 -27 -25 -35 -21
-14 -21 -14 -17 28 3 24 10 51 15 61 9 17 -3 18 -260 18 l-271 0 0 -220z
m1117 119 c8 -8 17 -8 32 1 27 14 58 5 72 -21 11 -21 3 -63 -11 -54 -5 3 -11
-1 -13 -7 -3 -7 -6 -3 -6 10 -1 35 -31 28 -31 -8 0 -16 5 -30 11 -30 5 0 8 4
5 8 -6 10 114 -11 133 -22 19 -12 12 -36 -14 -48 -19 -8 -35 -8 -64 0 -48 15
-51 15 -51 -1 0 -8 14 -26 30 -40 17 -15 30 -36 30 -46 0 -10 7 -24 15 -31 27
-22 16 -30 -40 -30 l-55 0 6 40 c4 21 4 47 0 56 -12 31 -36 -4 -36 -52 l0 -44
-55 0 c-32 0 -55 4 -55 11 0 5 25 42 56 80 l56 71 -23 24 c-20 21 -21 28 -11
44 7 11 12 27 12 36 0 13 -3 14 -15 4 -8 -7 -15 -18 -15 -25 0 -18 -50 -56
-62 -49 -6 4 -6 10 1 17 6 6 11 22 11 36 0 25 45 81 65 81 6 0 16 -5 22 -11z
m440 0 c8 -8 17 -8 32 1 27 14 58 5 72 -21 11 -21 3 -63 -11 -54 -5 3 -11 -1
-13 -7 -3 -7 -6 -3 -6 10 -1 35 -31 28 -31 -8 0 -16 5 -30 11 -30 5 0 8 4 5 8
-6 10 114 -11 133 -22 19 -12 12 -36 -14 -48 -19 -8 -35 -8 -66 1 -51 15 -60
8 -25 -20 43 -34 56 -50 56 -68 0 -10 7 -24 15 -31 27 -22 16 -30 -40 -30
l-55 0 6 40 c4 21 4 47 0 56 -12 31 -36 -4 -36 -52 l0 -44 -55 0 c-64 0 -68 9
-25 60 17 19 30 41 30 49 0 8 7 23 17 33 15 17 15 20 -7 44 -21 21 -22 28 -12
44 7 11 12 27 12 36 0 13 -3 14 -15 4 -8 -7 -15 -18 -15 -25 0 -18 -50 -56
-62 -49 -6 4 -6 10 1 17 6 6 11 22 11 36 0 25 45 81 65 81 6 0 16 -5 22 -11z
m1583 1 c14 -7 25 -7 39 2 18 11 24 9 51 -17 18 -18 30 -39 30 -55 0 -14 5
-31 11 -37 7 -7 7 -13 1 -17 -12 -7 -62 31 -62 49 0 7 -7 18 -15 25 -12 10
-15 9 -15 -4 0 -9 5 -25 12 -36 10 -16 9 -23 -11 -44 l-23 -24 56 -71 c31 -38
56 -75 56 -80 0 -7 -23 -11 -55 -11 l-55 0 0 44 c0 48 -24 83 -36 52 -4 -9 -4
-35 0 -56 l6 -40 -55 0 c-56 0 -67 8 -40 30 8 7 15 21 15 31 0 10 14 31 30 46
17 14 30 32 30 40 0 16 -3 16 -51 1 -29 -8 -45 -8 -64 0 -26 12 -33 36 -14 48
19 11 139 32 133 22 -3 -4 0 -8 5 -8 6 0 11 14 11 30 0 20 -5 30 -15 30 -9 0
-15 -9 -15 -22 0 -19 -2 -20 -10 -8 -5 8 -10 11 -10 5 0 -14 -20 17 -20 33 0
15 36 52 51 52 6 0 19 -5 29 -10z m-3033 -11 c8 -8 17 -8 32 1 27 14 58 5 72
-21 11 -21 3 -63 -11 -54 -5 3 -11 -1 -13 -7 -3 -7 -6 -3 -6 10 -2 38 -31 27
-31 -12 0 -47 49 -65 76 -28 10 13 17 15 31 6 27 -17 22 -47 -10 -62 -31 -15
-71 -7 -60 11 4 7 -1 6 -11 -2 -16 -14 -15 -17 18 -49 20 -18 36 -41 36 -51 0
-10 7 -24 15 -31 27 -22 16 -30 -40 -30 l-55 0 6 40 c4 21 4 47 0 56 -12 31
-36 -4 -36 -52 l0 -44 -55 0 c-33 0 -55 4 -55 11 0 6 16 30 35 53 19 24 35 47
35 51 0 5 -10 19 -22 33 -25 26 -28 21 34 66 13 9 15 19 10 41 -9 30 -12 29
-37 -19 -5 -10 -20 -25 -31 -33 -21 -13 -21 -13 -17 29 3 28 14 53 31 71 28
29 42 33 59 16z m1993 1 c14 -7 25 -7 39 2 18 11 24 9 51 -17 18 -18 30 -39
30 -55 0 -14 5 -31 11 -37 7 -7 7 -13 1 -17 -12 -7 -62 31 -62 49 0 7 -6 18
-14 24 -11 9 -15 6 -19 -16 -3 -19 0 -31 11 -39 62 -45 59 -40 35 -66 -13 -14
-23 -28 -23 -33 0 -4 16 -27 35 -51 19 -23 35 -47 35 -53 0 -7 -22 -11 -55
-11 l-55 0 0 44 c0 48 -24 83 -36 52 -4 -9 -4 -35 0 -56 l6 -40 -55 0 c-56 0
-67 8 -40 30 8 7 15 21 15 31 0 10 16 33 36 51 33 32 34 35 18 49 -10 8 -15 9
-11 2 11 -18 -29 -26 -60 -11 -32 15 -37 45 -10 62 14 9 21 7 31 -6 14 -19 33
-22 60 -12 22 8 22 74 1 74 -9 0 -15 -9 -15 -22 0 -19 -2 -20 -10 -8 -5 8 -10
11 -10 5 0 -14 -20 17 -20 33 0 15 36 52 51 52 6 0 19 -5 29 -10z"/>
</g>
</svg>
